<svg xmlns="http://www.w3.org/2000/svg" xmlns:xlink="http://www.w3.org/1999/xlink" width="1920" zoomAndPan="magnify" viewBox="0 0 1440 809.999993" height="1080" preserveAspectRatio="xMidYMid meet" version="1.0"><defs><clipPath id="af707dbcf8"><path d="M 414.730469 111 L 1025.230469 111 L 1025.230469 809 L 414.730469 809 Z M 414.730469 111 " clip-rule="nonzero"/></clipPath></defs><path fill="#100f0d" d="M 692.703125 52.125 C 715.273438 47.941406 734.734375 49.792969 750.367188 57.660156 C 768.453125 66.828125 780.425781 85.417969 780.851562 105.035156 C 781.277344 123.695312 773.0625 143.011719 758.933594 156.5625 C 755.902344 159.445312 752.671875 162.199219 749.488281 164.855469 L 746.535156 167.234375 C 743.429688 169.742188 740.273438 172.347656 737.316406 175.078125 C 733.558594 178.484375 730.976562 181.441406 729.097656 184.398438 C 727.296875 187.203125 726.144531 189.859375 725.84375 192.113281 L 696.808594 192.113281 C 697.160156 184.523438 699.839844 176.679688 704.800781 168.890625 C 708.058594 163.828125 712.164062 159.019531 717.777344 153.910156 C 721.183594 150.726562 724.765625 147.769531 728.296875 144.890625 L 731.101562 142.585938 C 733.785156 140.332031 736.4375 138.101562 738.96875 135.746094 C 747.261719 127.804688 752.296875 116.28125 752.09375 105.660156 C 751.871094 96.816406 745.808594 87.722656 737.390625 83.464844 C 727.519531 78.429688 714.167969 77.5 697.886719 80.457031 C 688.894531 82.160156 679.5 84.992188 670.207031 88.875 L 659.109375 62.296875 C 670.28125 57.585938 681.605469 54.128906 692.703125 52.125 Z M 709.785156 253.890625 C 698.3125 253.890625 688.945312 244.570312 688.945312 233.046875 C 688.945312 221.574219 698.3125 212.203125 709.785156 212.203125 C 721.308594 212.203125 730.601562 221.574219 730.601562 233.046875 C 730.601562 244.570312 721.308594 253.890625 709.785156 253.890625 Z M 719.929688 302.089844 C 802.921875 302.089844 870.15625 234.851562 870.15625 151.953125 C 870.15625 68.984375 802.921875 1.722656 719.929688 1.722656 C 636.992188 1.722656 569.804688 68.984375 569.804688 151.953125 C 569.804688 234.851562 636.992188 302.089844 719.929688 302.089844 " fill-opacity="1" fill-rule="nonzero"/><g clip-path="url(#af707dbcf8)"><path fill="#100f0d" d="M 986.386719 401.691406 L 986.386719 292.792969 C 986.386719 226.28125 955.953125 163.101562 902.21875 123.820312 C 896.183594 119.4375 890.195312 115.355469 884.132812 111.621094 C 887.367188 124.574219 889.019531 138.050781 889.019531 151.953125 C 889.019531 158.316406 888.644531 164.632812 887.992188 170.84375 C 921.382812 201.207031 940.898438 245.648438 940.898438 292.792969 L 940.898438 431.503906 L 968.253906 443.378906 C 973.539062 445.683594 979.699219 451.722656 979.699219 461.140625 L 979.699219 525.472656 C 979.699219 552.554688 961.890625 576.300781 935.410156 584.542969 L 914.09375 591.183594 L 906.304688 612 C 902.070312 623.324219 885.6875 663.03125 853.222656 698.730469 L 851.34375 700.933594 C 849.742188 702.914062 847.863281 705.042969 845.132812 707.921875 C 812.339844 743.320312 767.925781 762.785156 719.980469 762.785156 C 668.730469 762.785156 620.558594 739.886719 587.867188 699.90625 L 586.363281 698.152344 C 555.550781 664.109375 539.167969 626.378906 533.558594 611.726562 L 525.691406 591.132812 L 504.601562 584.542969 C 478.074219 576.300781 460.261719 552.554688 460.261719 525.472656 L 460.261719 461.140625 C 460.261719 451.769531 466.574219 445.785156 471.933594 443.429688 L 499.414062 431.605469 L 499.414062 292.792969 C 499.414062 245.546875 518.804688 201.082031 551.96875 170.792969 C 551.320312 164.605469 550.945312 158.316406 550.945312 151.953125 C 550.945312 138.050781 552.621094 124.523438 555.828125 111.570312 C 549.839844 115.304688 543.777344 119.4375 537.742188 123.820312 C 484.058594 163.101562 453.949219 226.28125 453.949219 292.792969 L 453.949219 401.691406 C 431.152344 411.488281 414.769531 434.285156 414.769531 461.140625 L 414.769531 525.472656 C 414.769531 573.949219 446.886719 614.253906 491.074219 627.984375 C 499.089844 648.976562 518.101562 690.535156 552.671875 728.691406 C 592.25 777.164062 652.496094 808.277344 719.980469 808.277344 C 782.679688 808.277344 839.042969 781.398438 878.472656 738.863281 C 881.480469 735.703125 884.234375 732.597656 886.863281 729.34375 C 921.710938 691.039062 941.023438 648.976562 948.886719 627.984375 C 993.078125 614.253906 1025.191406 573.949219 1025.191406 525.472656 L 1025.191406 461.140625 C 1025.191406 434.285156 1008.957031 411.488281 986.386719 401.691406 " fill-opacity="1" fill-rule="nonzero"/></g><path fill="#100f0d" d="M 819.554688 547.367188 C 764.59375 492.40625 675.34375 492.40625 620.355469 547.367188 C 601.394531 566.332031 588.945312 589.503906 583.207031 613.828125 L 856.730469 613.828125 C 850.992188 589.503906 838.542969 566.332031 819.554688 547.367188 " fill-opacity="1" fill-rule="nonzero"/><path fill="#100f0d" d="M 652.820312 387.488281 C 652.820312 363.816406 636.3125 344.550781 616 344.550781 C 595.683594 344.550781 579.175781 363.816406 579.175781 387.488281 C 579.175781 411.164062 595.683594 430.425781 616 430.425781 C 636.3125 430.425781 652.820312 411.164062 652.820312 387.488281 " fill-opacity="1" fill-rule="nonzero"/><path fill="#100f0d" d="M 823.964844 344.550781 C 803.671875 344.550781 787.140625 363.816406 787.140625 387.488281 C 787.140625 411.164062 803.671875 430.425781 823.964844 430.425781 C 844.28125 430.425781 860.789062 411.164062 860.789062 387.488281 C 860.789062 363.816406 844.28125 344.550781 823.964844 344.550781 " fill-opacity="1" fill-rule="nonzero"/></svg>